<svg id="Layer_1" xmlns="http://www.w3.org/2000/svg" viewBox="0 0 20 20"><style>.st0{fill-rule:evenodd;clip-rule:evenodd;fill:#fff}</style><path class="st0" d="M7.2 9.2H5.3V7.5H7c.6 0 1.2.1 1.2.8 0 .6-.4.9-1 .9zm0 3.2h-2v-2h2c.7 0 1.2.3 1.2 1 0 .8-.5 1-1.2 1zm6.2-3.1c.7 0 1.1.2 1.2.9h-2.5c0-.4.3-.9 1.3-.9zm0-1.1c-1.7 0-2.9 1.2-2.9 2.8 0 1.6 1.1 2.8 2.9 2.8 1.3 0 2.2-.7 2.7-1.9h-1.3c-.1.3-.7.8-1.3.8-.8 0-1.3-.6-1.4-1.5h4c.1-1.7-.8-3-2.7-3zm1.7-1.5H12v1h3.1v-1zM8.8 9.6c.7-.3 1-.8 1-1.5 0-1.4-1-1.9-2.5-1.9H3.8v7.4h3.7c1.4 0 2.7-.6 2.7-2.1 0-.9-.5-1.6-1.4-1.9zM10 20C4.5 20 0 15.5 0 10S4.5 0 10 0s10 4.5 10 10-4.5 10-10 10z"/></svg>