<?xml version="1.0" encoding="utf-8"?>
<!-- Generator: Adobe Illustrator 19.2.0, SVG Export Plug-In . SVG Version: 6.00 Build 0)  -->
<svg version="1.1" id="Layer_1" xmlns="http://www.w3.org/2000/svg" xmlns:xlink="http://www.w3.org/1999/xlink" x="0px" y="0px"
	 viewBox="0 0 20 20" style="enable-background:new 0 0 20 20;" xml:space="preserve">
<style type="text/css">
	.st0{fill-rule:evenodd;clip-rule:evenodd;fill:#FFFFFF;}
</style>
<path class="st0" d="M7.2,9.2H5.3V7.5H7c0.6,0,1.2,0.1,1.2,0.8C8.2,8.9,7.8,9.2,7.2,9.2z M7.2,12.4h-2v-2h2c0.7,0,1.2,0.3,1.2,1
	C8.4,12.2,7.9,12.4,7.2,12.4z M13.4,9.3c0.7,0,1.1,0.2,1.2,0.9h-2.5C12.1,9.8,12.4,9.3,13.4,9.3z M13.4,8.2c-1.7,0-2.9,1.2-2.9,2.8
	c0,1.6,1.1,2.8,2.9,2.8c1.3,0,2.2-0.7,2.7-1.9h-1.3c-0.1,0.3-0.7,0.8-1.3,0.8c-0.8,0-1.3-0.6-1.4-1.5h4C16.2,9.5,15.3,8.2,13.4,8.2z
	 M15.1,6.7H12v1h3.1V6.7z M8.8,9.6c0.7-0.3,1-0.8,1-1.5c0-1.4-1-1.9-2.5-1.9H3.8v7.4h3.7c1.4,0,2.7-0.6,2.7-2.1
	C10.2,10.6,9.7,9.9,8.8,9.6z M10,20C4.5,20,0,15.5,0,10S4.5,0,10,0s10,4.5,10,10S15.5,20,10,20z"/>
</svg>
