<?xml version="1.0" encoding="utf-8"?>
<!-- Generator: Adobe Illustrator 19.2.0, SVG Export Plug-In . SVG Version: 6.00 Build 0)  -->
<svg version="1.1" id="Layer_1" xmlns="http://www.w3.org/2000/svg" xmlns:xlink="http://www.w3.org/1999/xlink" x="0px" y="0px"
	 viewBox="0 0 20 20" style="enable-background:new 0 0 20 20;" xml:space="preserve">
<style type="text/css">
	.st0{fill:#FFFFFF;}
</style>
<g>
	<path class="st0" d="M13.1,9.7c-0.2,0-0.8,0.1-1.7,0.2C11,10,10.5,10,10,10c-0.5,0-1,0-1.4-0.1C7.8,9.8,7.2,9.7,6.9,9.7
		c-0.7,0-1.2,0.2-1.6,0.7c-0.4,0.5-0.6,1.1-0.6,1.8c0,0.5,0.1,1,0.3,1.3c0.2,0.4,0.4,0.7,0.7,0.9C6,14.7,6.3,14.9,6.8,15
		C7.2,15.1,7.6,15,8,15.1c0.4,0,0.8-0.1,1.3-0.1h1.5c0.5,0,0.9,0.1,1.3,0.1c0.4,0,0.8-0.1,1.2-0.2c0.4-0.1,0.8-0.3,1.1-0.5
		c0.3-0.2,0.5-0.5,0.7-0.9c0.2-0.4,0.3-0.8,0.3-1.3c0-0.7-0.2-1.3-0.6-1.8C14.3,10,13.7,9.7,13.1,9.7z M8.2,12.9
		c-0.1,0.2-0.2,0.5-0.4,0.7c-0.2,0.2-0.4,0.3-0.6,0.3c-0.2,0-0.5-0.1-0.6-0.3c-0.2-0.2-0.3-0.4-0.4-0.7c-0.1-0.2-0.1-0.5-0.1-0.7
		c0-0.2,0-0.5,0.1-0.7c0.1-0.2,0.2-0.5,0.4-0.7c0.2-0.2,0.4-0.3,0.6-0.3c0.2,0,0.5,0.1,0.6,0.3c0.2,0.2,0.3,0.4,0.4,0.7
		c0.1,0.2,0.1,0.5,0.1,0.7S8.3,12.7,8.2,12.9z M13.8,12.9c-0.1,0.2-0.2,0.5-0.4,0.7c-0.2,0.2-0.4,0.3-0.6,0.3
		c-0.2,0-0.5-0.1-0.6-0.3c-0.2-0.2-0.3-0.4-0.4-0.7c-0.1-0.2-0.1-0.5-0.1-0.7c0-0.2,0-0.5,0.1-0.7c0.1-0.2,0.2-0.5,0.4-0.7
		c0.2-0.2,0.4-0.3,0.6-0.3c0.2,0,0.5,0.1,0.6,0.3c0.2,0.2,0.3,0.4,0.4,0.7c0.1,0.2,0.1,0.5,0.1,0.7S13.9,12.7,13.8,12.9z"/>
	<path class="st0" d="M10,0C4.5,0,0,4.5,0,10c0,5.5,4.5,10,10,10s10-4.5,10-10C20,4.5,15.5,0,10,0z M16.7,13.6
		c-0.2,0.4-0.5,0.8-0.9,1.2c-0.4,0.3-0.8,0.6-1.2,0.7c-0.4,0.2-0.9,0.3-1.5,0.4c-0.6,0.1-1.1,0.2-1.5,0.2c-0.4,0-0.9,0-1.5,0
		c-0.5,0-0.9,0-1.2,0c-0.4,0-0.8-0.1-1.3-0.1c-0.5-0.1-0.9-0.1-1.3-0.3c-0.4-0.1-0.8-0.3-1.2-0.4c-0.4-0.2-0.7-0.4-1.1-0.7
		c-0.3-0.3-0.6-0.6-0.7-1c-0.4-0.7-0.5-1.7-0.5-2.9c0-1.4,0.4-2.5,1.2-3.4c-0.2-0.5-0.2-1-0.2-1.5c0-0.7,0.1-1.3,0.4-1.9
		c0.6,0,1.2,0.1,1.7,0.3c0.5,0.2,1,0.6,1.6,1.1C8.3,5.1,9.2,5,10.1,5c0.9,0,1.7,0.1,2.4,0.3c0.6-0.5,1.2-0.8,1.6-1.1
		c0.5-0.2,1-0.3,1.6-0.3c0.3,0.6,0.4,1.2,0.4,1.9c0,0.5-0.1,1-0.2,1.5c0.8,0.9,1.2,2.1,1.2,3.5C17.2,11.9,17.1,12.9,16.7,13.6z"/>
</g>
</svg>
