<svg id="Layer_1" xmlns="http://www.w3.org/2000/svg" viewBox="0 0 20 20"><style>.st0{fill:#fff}</style><path class="st0" d="M13.1 9.7c-.2 0-.8.1-1.7.2-.4.1-.9.1-1.4.1-.5 0-1 0-1.4-.1-.8-.1-1.4-.2-1.7-.2-.7 0-1.2.2-1.6.7-.4.5-.6 1.1-.6 1.8 0 .5.1 1 .3 1.3.2.4.4.7.7.9.3.3.6.5 1.1.6.4.1.8 0 1.2.1.4 0 .8-.1 1.3-.1h1.5c.5 0 .9.1 1.3.1s.8-.1 1.2-.2c.4-.1.8-.3 1.1-.5.3-.2.5-.5.7-.9.2-.4.3-.8.3-1.3 0-.7-.2-1.3-.6-1.8-.5-.4-1.1-.7-1.7-.7zm-4.9 3.2c-.1.2-.2.5-.4.7-.2.2-.4.3-.6.3-.2 0-.5-.1-.6-.3-.2-.2-.3-.4-.4-.7-.1-.2-.1-.5-.1-.7 0-.2 0-.5.1-.7.1-.2.2-.5.4-.7.2-.2.4-.3.6-.3.2 0 .5.1.6.3.2.2.3.4.4.7.1.2.1.5.1.7s0 .5-.1.7zm5.6 0c-.1.2-.2.5-.4.7-.2.2-.4.3-.6.3-.2 0-.5-.1-.6-.3-.2-.2-.3-.4-.4-.7-.1-.2-.1-.5-.1-.7 0-.2 0-.5.1-.7.1-.2.2-.5.4-.7.2-.2.4-.3.6-.3.2 0 .5.1.6.3.2.2.3.4.4.7.1.2.1.5.1.7s0 .5-.1.7z"/><path class="st0" d="M10 0C4.5 0 0 4.5 0 10s4.5 10 10 10 10-4.5 10-10S15.5 0 10 0zm6.7 13.6c-.2.4-.5.8-.9 1.2-.4.3-.8.6-1.2.7-.4.2-.9.3-1.5.4-.6.1-1.1.2-1.5.2H8.9c-.4 0-.8-.1-1.3-.1-.5-.1-.9-.1-1.3-.3-.4-.1-.8-.3-1.2-.4-.4-.2-.7-.4-1.1-.7-.3-.3-.6-.6-.7-1-.4-.7-.5-1.7-.5-2.9 0-1.4.4-2.5 1.2-3.4-.2-.5-.2-1-.2-1.5 0-.7.1-1.3.4-1.9.6 0 1.2.1 1.7.3.5.2 1 .6 1.6 1.1.8-.2 1.7-.3 2.6-.3.9 0 1.7.1 2.4.3.6-.5 1.2-.8 1.6-1.1.5-.2 1-.3 1.6-.3.3.6.4 1.2.4 1.9 0 .5-.1 1-.2 1.5.8.9 1.2 2.1 1.2 3.5.1 1.1 0 2.1-.4 2.8z"/></svg>