<?xml version="1.0" encoding="utf-8"?>
<!-- Generator: Adobe Illustrator 19.2.0, SVG Export Plug-In . SVG Version: 6.00 Build 0)  -->
<svg version="1.1" id="Layer_1" xmlns="http://www.w3.org/2000/svg" xmlns:xlink="http://www.w3.org/1999/xlink" x="0px" y="0px"
	 viewBox="0 0 20 20" style="enable-background:new 0 0 20 20;" xml:space="preserve">
<style type="text/css">
	.st0{fill-rule:evenodd;clip-rule:evenodd;fill:#FFFFFF;}
</style>
<path class="st0" d="M15.6,9.6c0-0.9-0.3-1.6-0.8-2c-0.6-0.5-1.3-0.8-2.2-0.8c-0.4,0-0.7,0.1-1.2,0.2C11,7.2,10.6,7.5,10,7.8v-1H8
	v7.5h2v-2.7c0-0.8,0-1.3,0.1-1.6c0.1-0.5,0.4-0.8,0.7-1.1c0.3-0.3,0.7-0.4,1.2-0.4c0.4,0,0.7,0.1,0.9,0.2c0.2,0.2,0.4,0.4,0.5,0.7
	c0.1,0.3,0.1,0.9,0.1,1.8v3h2V9.6z M6.5,6.8h-2v7.5h2V6.8z M6.2,4.7C6,4.5,5.7,4.4,5.4,4.4c-0.3,0-0.5,0.1-0.7,0.3
	C4.5,4.8,4.4,5.1,4.4,5.3c0,0.3,0.1,0.5,0.3,0.7c0.2,0.2,0.4,0.3,0.7,0.3c0.3,0,0.5-0.1,0.7-0.3c0.2-0.2,0.3-0.4,0.3-0.7
	C6.5,5.1,6.4,4.8,6.2,4.7z M10,19.9c-5.5,0-10-4.5-10-10S4.5,0,10,0s10,4.5,10,10S15.5,19.9,10,19.9z"/>
</svg>
