<svg id="Layer_1" xmlns="http://www.w3.org/2000/svg" viewBox="0 0 20 20"><style>.st0{fill-rule:evenodd;clip-rule:evenodd;fill:#fff}</style><path class="st0" d="M15.6 9.6c0-.9-.3-1.6-.8-2-.6-.5-1.3-.8-2.2-.8-.4 0-.7.1-1.2.2-.4.2-.8.5-1.4.8v-1H8v7.5h2v-2.7c0-.8 0-1.3.1-1.6.1-.5.4-.8.7-1.1.3-.3.7-.4 1.2-.4.4 0 .7.1.9.2.2.2.4.4.5.7.1.3.1.9.1 1.8v3h2V9.6zM6.5 6.8h-2v7.5h2V6.8zm-.3-2.1c-.2-.2-.5-.3-.8-.3-.3 0-.5.1-.7.3-.2.1-.3.4-.3.6 0 .3.1.5.3.7.2.2.4.3.7.3.3 0 .5-.1.7-.3.2-.2.3-.4.3-.7.1-.2 0-.5-.2-.6zM10 19.9c-5.5 0-10-4.5-10-10S4.5 0 10 0s10 4.5 10 10-4.5 9.9-10 9.9z"/></svg>