<?xml version="1.0" encoding="utf-8"?>
<!-- Generator: Adobe Illustrator 19.2.0, SVG Export Plug-In . SVG Version: 6.00 Build 0)  -->
<svg version="1.1" id="Layer_1" xmlns="http://www.w3.org/2000/svg" xmlns:xlink="http://www.w3.org/1999/xlink" x="0px" y="0px"
	 viewBox="0 0 20 20" style="enable-background:new 0 0 20 20;" xml:space="preserve">
<style type="text/css">
	.st0{fill-rule:evenodd;clip-rule:evenodd;fill:#FFFFFF;}
</style>
<path class="st0" d="M15.8,5.4c-0.4,0.3-0.9,0.5-1.5,0.6c-0.4-0.5-1-0.8-1.7-0.8c-1.3,0-2.3,1.1-2.3,2.5c0,0.2,0,0.4,0.1,0.6
	C8.6,8.2,6.9,7.2,5.7,5.7C5.5,6.1,5.4,6.5,5.4,6.9c0,0.9,0.4,1.6,1,2.1c-0.4,0-0.7-0.1-1-0.3v0c0,1.2,0.8,2.2,1.8,2.5
	c-0.2,0.1-0.4,0.1-0.6,0.1c-0.1,0-0.3,0-0.4,0c0.3,1,1.1,1.7,2.1,1.7c-0.8,0.7-1.8,1.1-2.8,1.1c-0.2,0-0.4,0-0.5,0
	c1,0.7,2.2,1.1,3.5,1.1c4.2,0,6.5-3.8,6.5-7.1l0-0.3c0.5-0.4,0.8-0.8,1.2-1.3c-0.4,0.2-0.9,0.3-1.3,0.4C15.3,6.5,15.7,6,15.8,5.4z
	 M10,20C4.5,20,0,15.5,0,10S4.5,0,10,0s10,4.5,10,10S15.5,20,10,20z"/>
</svg>
