<svg id="Layer_1" xmlns="http://www.w3.org/2000/svg" viewBox="0 0 20 20"><style>.st0{fill-rule:evenodd;clip-rule:evenodd;fill:#fff}</style><path class="st0" d="M15.8 5.4c-.4.3-.9.5-1.5.6-.4-.5-1-.8-1.7-.8-1.3 0-2.3 1.1-2.3 2.5 0 .2 0 .4.1.6-1.8-.1-3.5-1.1-4.7-2.6-.2.4-.3.8-.3 1.2 0 .9.4 1.6 1 2.1-.4 0-.7-.1-1-.3 0 1.2.8 2.2 1.8 2.5-.2.1-.4.1-.6.1h-.4c.3 1 1.1 1.7 2.1 1.7-.8.7-1.8 1.1-2.8 1.1H5c1 .7 2.2 1.1 3.5 1.1 4.2 0 6.5-3.8 6.5-7.1v-.3c.5-.4.8-.8 1.2-1.3-.4.2-.9.3-1.3.4.4-.4.8-.9.9-1.5zM10 20C4.5 20 0 15.5 0 10S4.5 0 10 0s10 4.5 10 10-4.5 10-10 10z"/></svg>